<?xml version="1.0" standalone="no"?>
<!DOCTYPE svg PUBLIC "-//W3C//DTD SVG 20010904//EN"
 "http://www.w3.org/TR/2001/REC-SVG-20010904/DTD/svg10.dtd">
<svg version="1.0" xmlns="http://www.w3.org/2000/svg"
 width="207.000000pt" height="207.000000pt" viewBox="0 0 207.000000 207.000000"
 preserveAspectRatio="xMidYMid meet">
<metadata>
Created by potrace 1.14, written by Peter Selinger 2001-2017
</metadata>
<g transform="translate(0.000000,207.000000) scale(0.100000,-0.100000)"
fill="#000000" stroke="none">
<path d="M26 2025 c-3 -8 -6 -456 -6 -994 0 -806 2 -980 13 -989 10 -8 217
-11 733 -9 l719 2 0 120 0 120 -607 3 -608 2 0 760 0 760 760 0 760 0 2 -612
3 -613 115 0 115 0 0 730 0 730 -996 3 c-885 2 -997 0 -1003 -13z"/>
<path d="M985 1540 c-189 -51 -232 -65 -243 -75 -19 -17 28 -199 53 -203 15
-3 35 1 127 25 17 4 18 -19 20 -349 l3 -353 110 -3 c61 -2 120 0 133 3 l22 5
0 464 c0 256 -3 471 -6 480 -5 13 -23 16 -98 15 -50 -1 -104 -5 -121 -9z"/>
<path d="M1599 469 c-5 -3 -8 -99 -7 -225 l3 -219 220 0 220 0 3 222 2 222
-216 3 c-119 2 -220 0 -225 -3z"/>
</g>
</svg>
